<svg width="62" height="61" viewBox="0 0 62 61" fill="none" xmlns="http://www.w3.org/2000/svg">
<path d="M11.8784 51.6155L7.62341 3.89453H54.3768L50.1161 51.608L30.9717 56.9158L11.8784 51.6155Z" fill="#E44F26"/>
<path d="M31 52.8597L46.4708 48.5707L50.1104 7.79736H31V52.8597Z" fill="#F1662A"/>
<path d="M31 25.4949H23.2551L22.7211 19.5016H31V13.6484H16.3245L16.4646 15.2201L17.9018 31.3481H31V25.4949ZM31 40.6949L30.9735 40.7025L24.4556 38.9434L24.0391 34.2756H18.1632L18.9831 43.4634L30.9735 46.7924L31 46.7848V40.6949Z" fill="#EBEBEB"/>
<path d="M30.9791 25.4949V31.3481H38.1862L37.5083 38.9396L30.9791 40.7006V46.7905L42.979 43.4634L43.0661 42.4749L44.4408 27.0666L44.5848 25.4949H30.9791ZM30.9791 13.6484V19.5016H45.1169L45.2343 18.1874L45.5013 15.2201L45.6414 13.6484H30.9791Z" fill="white"/>
</svg>
