<svg width="50" height="51" viewBox="0 0 50 51" fill="none" xmlns="http://www.w3.org/2000/svg">
<path d="M3.42432 3.82935H46.5757V46.9808H3.42432V3.82935Z" fill="#F5DE19"/>
<path d="M32.4112 37.5413C32.7795 38.2877 33.3508 38.915 34.0596 39.3512C34.7684 39.7874 35.5859 40.0147 36.4181 40.0071C38.098 40.0071 39.1721 39.1672 39.1721 38.0036C39.1721 36.6166 38.0687 36.1204 36.2193 35.3113L35.2053 34.8767C32.2771 33.6299 30.3353 32.0688 30.3353 28.7677C30.3353 25.7271 32.647 23.4108 36.2733 23.4108C37.4471 23.3262 38.6199 23.589 39.6454 24.1664C40.6709 24.7439 41.5038 25.6104 42.0401 26.6579L38.8701 28.6845C38.6634 28.1651 38.3038 27.7208 37.839 27.4104C37.3742 27.0999 36.826 26.938 36.2671 26.9461C36.0232 26.9217 35.777 26.9483 35.544 27.0244C35.311 27.1004 35.0964 27.2241 34.9138 27.3877C34.7313 27.5512 34.5848 27.751 34.4838 27.9743C34.3827 28.1975 34.3293 28.4394 34.3268 28.6845C34.3268 29.9004 35.0804 30.3936 36.8204 31.1503L37.8344 31.5849C41.2804 33.0628 43.2284 34.5685 43.2284 37.9543C43.2284 41.6053 40.3603 43.6056 36.5091 43.6056C35.0086 43.7003 33.5128 43.3592 32.2018 42.6234C30.8907 41.8876 29.8203 40.7885 29.1194 39.4585L32.4112 37.5413ZM18.0865 37.8927C18.723 39.0223 19.3024 39.9778 20.6956 39.9778C22.0271 39.9778 22.8686 39.4569 22.8686 37.4304V23.6419H26.9233V37.4843C26.9233 41.6823 24.4575 43.5933 20.8682 43.5933C19.5995 43.6627 18.3395 43.3465 17.2538 42.6863C16.1681 42.0262 15.3076 41.053 14.7854 39.8946L18.0865 37.8927Z" fill="black"/>
</svg>
