<svg width="73" height="74" viewBox="0 0 73 74" fill="none" xmlns="http://www.w3.org/2000/svg">
<circle cx="36.5924" cy="37.0267" r="36.1932" fill="#262626"/>
<path d="M52.0299 18.9171H21.1549C20.4544 18.91 19.7796 19.1811 19.2787 19.6708C18.7778 20.1606 18.4916 20.8291 18.483 21.5296V52.5293C18.4932 53.2288 18.78 53.8958 19.2808 54.3843C19.7815 54.8728 20.4554 55.143 21.1549 55.1359H52.0299C52.7305 55.1414 53.4048 54.8694 53.9054 54.3794C54.4061 53.8893 54.6924 53.2209 54.7018 52.5204V21.5207C54.6893 20.8223 54.4016 20.157 53.9013 19.6694C53.401 19.1819 52.7285 18.9115 52.0299 18.9171Z" fill="#0076B2"/>
<path d="M23.8446 32.4937H29.221V49.7926H23.8446V32.4937ZM26.5343 23.8843C27.151 23.8843 27.7537 24.0672 28.2664 24.4098C28.7791 24.7525 29.1786 25.2395 29.4145 25.8093C29.6503 26.379 29.7119 27.0059 29.5914 27.6107C29.4709 28.2154 29.1737 28.7709 28.7374 29.2067C28.3012 29.6425 27.7455 29.9392 27.1406 30.0591C26.5357 30.1791 25.9089 30.1169 25.3393 29.8805C24.7698 29.6441 24.2832 29.2441 23.941 28.7311C23.5988 28.2181 23.4165 27.6151 23.4171 26.9985C23.4179 26.1723 23.7467 25.3802 24.3312 24.7962C24.9157 24.2123 25.7081 23.8843 26.5343 23.8843ZM32.5935 32.4937H37.7473V34.8687H37.8185C38.537 33.509 40.2885 32.0751 42.904 32.0751C48.3487 32.0632 49.3581 35.6465 49.3581 40.2926V49.7926H43.9816V41.3762C43.9816 39.3722 43.946 36.7924 41.1881 36.7924C38.4301 36.7924 37.961 38.9774 37.961 41.2455V49.7926H32.5935V32.4937Z" fill="white"/>
</svg>
