<svg width="73" height="73" viewBox="0 0 73 73" fill="none" xmlns="http://www.w3.org/2000/svg">
<circle cx="36.5924" cy="36.3529" r="36.1932" fill="#262626"/>
<g clip-path="url(#clip0_44_8)">
<path d="M27.5924 50.3053V37.4932L23.6382 33.858L20.0924 31.8408V48.0443C20.0924 49.2954 21.1011 50.3053 22.3425 50.3053H27.5924Z" fill="#4285F4"/>
<path d="M45.5924 50.3052H50.8424C52.0875 50.3052 53.0924 49.2915 53.0924 48.0442V31.8408L49.0762 34.1513L45.5924 37.493V50.3052Z" fill="#34A853"/>
<path d="M27.5924 37.4932L27.0543 32.4871L27.5924 27.6958L36.5924 34.4787L45.5923 27.6958L46.1942 32.2284L45.5923 37.4932L36.5924 44.2761L27.5924 37.4932Z" fill="#EA4335"/>
<path d="M45.5924 27.6955V37.4929L53.0924 31.8406V28.826C53.0924 26.03 49.9162 24.4361 47.6925 26.1129L45.5924 27.6955Z" fill="#FBBC04"/>
<path d="M20.0924 31.8407L23.5418 34.4404L27.5924 37.493V27.6956L25.4923 26.113C23.2648 24.436 20.0924 26.0301 20.0924 28.8259V31.8407Z" fill="#C5221F"/>
</g>
<defs>
<clipPath id="clip0_44_8">
<rect width="33" height="25" fill="white" transform="translate(20.0924 25.4282)"/>
</clipPath>
</defs>
</svg>
